#define knot1_width 222
#define knot1_height 212
static char knot1_bits[] = {
 0x00,0x00,0x00,0x00,0x00,0x00,0x00,0x00,0x00,0x00,0x00,0x00,0x00,0x00,0x00,
 0x00,0x00,0x00,0x00,0x00,0x00,0x00,0x00,0x00,0x00,0x00,0x00,0xc0,0x00,0x00,
 0x00,0x00,0x00,0x00,0x00,0x00,0x00,0x00,0x00,0x00,0x00,0x00,0x00,0x00,0x00,
 0x00,0x00,0x00,0x00,0x00,0x00,0x00,0x00,0x00,0x00,0xc0,0x00,0x00,0x00,0x00,
 0x00,0x00,0x00,0x00,0x00,0x00,0x00,0x00,0x00,0x00,0x00,0x00,0x00,0x00,0x00,
 0x00,0x00,0x00,0x00,0x00,0x00,0x00,0x00,0xc0,0x00,0x00,0x00,0x00,0x00,0x00,
 0x00,0x00,0x00,0x00,0x00,0x00,0x00,0x00,0x00,0x00,0x00,0x00,0x00,0x00,0x00,
 0x00,0x00,0x00,0x00,0x00,0x00,0xc0,0x00,0x00,0x00,0x00,0x00,0x00,0x00,0x00,
 0x00,0x00,0x00,0x00,0x00,0x00,0x00,0x00,0x00,0x00,0x00,0x00,0x00,0x00,0x00,
 0x00,0x00,0x00,0x00,0xc0,0x00,0x00,0x00,0x00,0x00,0x00,0x00,0x00,0x00,0x00,
 0x00,0x00,0x00,0x00,0x00,0x00,0x00,0x00,0x00,0x00,0x00,0x00,0x00,0x00,0x00,
 0x00,0x00,0xc0,0x00,0x00,0x00,0x00,0x00,0x00,0x00,0x00,0x00,0x00,0x00,0x00,
 0x00,0x00,0x00,0x00,0x00,0x00,0x00,0x00,0x00,0x00,0x00,0x00,0x00,0x00,0x00,
 0xc0,0x00,0x00,0x00,0x00,0x00,0x00,0x00,0x00,0x00,0x00,0x00,0x00,0x00,0x00,
 0x00,0x00,0x00,0x00,0x00,0x00,0x00,0x00,0x00,0x00,0x00,0x00,0x00,0xc0,0x00,
 0x00,0x00,0x00,0x00,0x00,0x00,0x00,0x00,0x00,0x00,0x00,0x00,0x00,0x00,0x00,
 0x00,0x00,0x00,0x00,0x00,0x00,0x00,0x00,0x00,0x00,0x00,0xc0,0x00,0x00,0x00,
 0x00,0x00,0x00,0x00,0x00,0x00,0x00,0x00,0x00,0x00,0x00,0x00,0x00,0x00,0x00,
 0x00,0x00,0x00,0x00,0x00,0x00,0x00,0x00,0x00,0xc0,0x00,0x00,0x00,0x00,0x00,
 0x00,0x00,0x00,0x00,0x00,0x00,0x00,0x00,0x00,0x00,0x00,0x00,0x00,0x00,0x00,
 0x00,0x00,0x00,0x00,0x00,0x00,0x00,0xc0,0x00,0x00,0x00,0x00,0x00,0x00,0x00,
 0x00,0x00,0x00,0x00,0x00,0x00,0x00,0x00,0x00,0x00,0x00,0x00,0x00,0x00,0x00,
 0x00,0x00,0x00,0x00,0x00,0xc0,0x00,0x00,0x00,0x00,0x00,0x00,0x00,0x00,0x00,
 0x00,0x00,0x00,0x00,0x00,0x00,0x00,0x00,0x00,0x00,0x00,0x00,0x00,0x00,0x00,
 0x00,0x00,0x00,0xc0,0x00,0x00,0x00,0x00,0x00,0x00,0x00,0x00,0x00,0x00,0x00,
 0x00,0x00,0x00,0x00,0x00,0x00,0x00,0x00,0x00,0x00,0x00,0x00,0x00,0x00,0x00,
 0x00,0xc0,0x00,0x00,0x00,0x00,0x00,0x00,0x00,0x00,0x00,0x00,0x00,0x00,0x00,
 0x00,0x00,0x00,0x00,0x00,0x00,0x00,0x00,0x00,0x00,0x00,0x00,0x00,0x00,0xc0,
 0x00,0x00,0x00,0x00,0x00,0x00,0x00,0x00,0x00,0x00,0x00,0x00,0x00,0x00,0x00,
 0x00,0x00,0x00,0x00,0x00,0x00,0x00,0x00,0x00,0x00,0x00,0x00,0xc0,0x00,0x00,
 0x00,0x00,0x00,0x00,0x00,0x00,0x00,0x00,0x00,0x00,0x00,0x00,0x00,0x00,0x00,
 0x00,0x00,0x00,0x00,0x00,0x00,0x00,0x00,0x00,0x00,0xc0,0x00,0x00,0x00,0x00,
 0x00,0x00,0x00,0x00,0x00,0x00,0x00,0x00,0x00,0x00,0x00,0x00,0x00,0x00,0x00,
 0x00,0x00,0x00,0x00,0x00,0x00,0x00,0x00,0xc0,0x00,0x00,0x00,0x00,0x00,0x00,
 0x00,0x00,0x00,0x00,0x00,0x00,0x00,0x00,0x00,0x00,0x00,0x00,0x00,0x00,0x00,
 0x00,0x00,0x00,0x00,0x00,0x00,0xc0,0x00,0x00,0x00,0x00,0x00,0x00,0x00,0x00,
 0x00,0x00,0x00,0x00,0x00,0x00,0x00,0x00,0x00,0x00,0x00,0x00,0x00,0x00,0x00,
 0x00,0x00,0x00,0x00,0xc0,0x00,0x00,0x00,0x00,0x00,0x00,0x00,0x00,0x00,0x00,
 0x00,0x00,0x00,0x00,0x00,0x00,0x00,0x00,0x00,0x00,0x00,0x00,0x00,0x00,0x00,
 0x00,0x00,0xc0,0x00,0x00,0x00,0x00,0x00,0x00,0x00,0x00,0x00,0x00,0x00,0x00,
 0x00,0x00,0x00,0x00,0x00,0x00,0x00,0x00,0x00,0x00,0x00,0x00,0x00,0x00,0x00,
 0xc0,0x00,0x00,0x00,0x00,0x00,0x00,0x00,0x00,0x00,0x00,0x00,0x00,0x00,0x00,
 0x00,0x00,0x00,0x00,0x00,0x00,0x00,0x00,0x00,0x00,0x00,0x00,0x00,0xc0,0x00,
 0x00,0x00,0x00,0x00,0x00,0x00,0x00,0x00,0x00,0x00,0x00,0x00,0x00,0x00,0x00,
 0x00,0x00,0x00,0x00,0x00,0x00,0x00,0x00,0x00,0x00,0x00,0xc0,0x00,0x00,0x00,
 0x00,0x00,0x00,0x00,0xf8,0xff,0xff,0x0f,0x00,0x00,0x00,0x00,0x00,0x00,0x00,
 0x00,0x00,0x00,0x00,0x00,0x00,0x00,0x00,0x00,0xc0,0x00,0x00,0x00,0x00,0x00,
 0x00,0xc0,0xb7,0xaa,0xaa,0x3a,0x00,0x00,0x00,0x00,0x00,0x00,0x00,0x00,0x00,
 0x00,0x00,0x00,0x00,0x00,0x00,0x00,0xc0,0x00,0x00,0x00,0x00,0x00,0x00,0xb8,
 0xdd,0xff,0xff,0xef,0x00,0x00,0x00,0x00,0x00,0x00,0x00,0x00,0x00,0x00,0x00,
 0x00,0x00,0x00,0x00,0x00,0xc0,0x00,0x00,0x00,0x00,0x00,0x00,0xec,0xf7,0xb6,
 0x6d,0xbb,0x01,0x00,0x00,0x00,0x04,0x00,0xfe,0x00,0x00,0x00,0x00,0x00,0x00,
 0x00,0x00,0x00,0xc0,0x00,0x00,0x00,0x00,0x00,0x80,0x7b,0x0d,0x00,0x00,0xd8,
 0x06,0x00,0x00,0x00,0x1e,0xe0,0xad,0x07,0x00,0x00,0x00,0x00,0x00,0x00,0x00,
 0x00,0xc0,0x00,0x00,0x00,0x00,0x00,0xe0,0x5e,0x00,0x00,0x00,0xe0,0x1b,0x00,
 0x00,0x00,0x6b,0x5c,0xff,0x3a,0x00,0x00,0x00,0x00,0x00,0x00,0x00,0x00,0xc0,
 0x00,0x00,0x00,0x00,0x00,0xb0,0x07,0x00,0x00,0x00,0x00,0x2f,0x00,0x00,0x00,
 0xbe,0xfb,0xab,0xef,0x00,0x00,0x00,0x00,0x00,0x00,0x00,0x00,0xc0,0x00,0x00,
 0x00,0x00,0x00,0xd8,0x05,0x00,0x00,0x00,0x00,0xfd,0x00,0x00,0x00,0xf8,0x6e,
 0x83,0xbd,0x01,0x00,0x00,0x00,0x00,0x00,0x00,0x00,0xc0,0x00,0x00,0x00,0x00,
 0x00,0x76,0x00,0x00,0x00,0x00,0x00,0xac,0x03,0x00,0x04,0xa0,0x3f,0x00,0xf4,
 0x02,0x00,0x00,0x00,0x00,0x00,0x00,0x00,0xc0,0x00,0x00,0x00,0x00,0x00,0x3f,
 0x00,0x00,0x00,0x00,0x00,0xf8,0x06,0x00,0x04,0xfe,0x05,0x00,0xa0,0x07,0x00,
 0x00,0x00,0x00,0x00,0x00,0x00,0xc0,0x00,0x00,0x00,0x00,0x80,0x15,0x00,0x00,
 0x00,0x00,0x00,0xc0,0x0b,0x00,0x04,0xdb,0x02,0x00,0x80,0x0d,0x00,0x00,0x00,
 0x00,0x00,0x00,0x00,0xc0,0x00,0x00,0x00,0x00,0x80,0x0e,0x00,0x00,0x00,0x00,
 0x00,0x80,0x0e,0x80,0xfb,0x7e,0x03,0x00,0x80,0x0b,0x00,0x00,0x00,0x00,0x00,
 0x00,0x00,0xc0,0x00,0x00,0x00,0x00,0xc0,0x07,0x00,0x00,0x00,0x00,0x00,0x00,
 0x06,0x00,0xac,0xeb,0x01,0x00,0x00,0x0e,0x00,0x00,0x00,0x00,0x00,0x00,0x00,
 0xc0,0x00,0x00,0x00,0x00,0xa0,0x01,0x00,0x00,0x00,0x00,0x00,0x00,0x00,0x00,
 0xfd,0xa2,0x01,0x00,0x00,0x07,0x00,0x00,0x00,0x00,0x00,0x00,0x00,0xc0,0x00,
 0x00,0x00,0x00,0xe0,0x01,0x00,0x00,0x00,0xc0,0xff,0xff,0x1d,0xff,0xb7,0xe1,
 0x00,0x00,0x00,0x1d,0x00,0x00,0x00,0x00,0x00,0x00,0x00,0xc0,0x00,0x00,0x00,
 0x00,0xb0,0x00,0x00,0x00,0x00,0xb8,0x55,0x55,0xef,0x56,0x1d,0xb0,0x01,0x00,
 0x00,0x0e,0x00,0x00,0x00,0x00,0x00,0x00,0x00,0xc0,0x00,0x00,0x00,0x00,0xe8,
 0x00,0x00,0x00,0x00,0xec,0xff,0xff,0xbb,0xff,0x07,0xe0,0x00,0x00,0x00,0x1a,
 0x00,0x00,0x00,0x00,0x00,0x00,0x00,0xc0,0x00,0x00,0x00,0x00,0x78,0x00,0x00,
 0x00,0x80,0x7b,0x6d,0xdb,0xee,0xb5,0x01,0x00,0x00,0x00,0x00,0x1e,0x00,0x00,
 0x00,0x00,0x00,0x00,0x00,0xc0,0x00,0x00,0x00,0x00,0x2c,0x00,0x00,0x00,0xc0,
 0x5e,0x00,0x00,0x70,0x01,0x70,0x00,0x00,0x00,0x00,0x0a,0x00,0x00,0x00,0x00,
 0x00,0x00,0x00,0xc0,0x00,0x00,0x00,0x00,0x3c,0x00,0x00,0x00,0xb0,0x07,0x00,
 0x00,0x00,0x00,0xd0,0x01,0x00,0x00,0x00,0x1e,0x08,0x00,0x00,0x00,0x00,0x00,
 0x00,0xc0,0x00,0x00,0x00,0x00,0x34,0x00,0x00,0x00,0xf8,0x06,0x00,0x00,0x00,
 0x00,0x7c,0x07,0x00,0x00,0x40,0x3a,0x08,0x00,0x00,0x00,0x00,0x00,0x00,0xc0,
 0x00,0x00,0x00,0x00,0x2c,0x00,0x00,0x00,0xac,0x00,0x00,0x00,0x00,0x00,0xe8,
 0x1d,0x00,0x00,0xe0,0x2c,0x08,0x00,0x00,0x00,0x00,0x00,0x00,0xc0,0x00,0x00,
 0x00,0x00,0x3a,0x00,0x00,0x00,0x74,0x00,0x00,0x00,0x00,0x00,0x40,0x57,0x00,
 0x00,0xb0,0x38,0x77,0x00,0x00,0x00,0x00,0x00,0x00,0xc0,0x00,0x00,0x00,0x00,
 0x1e,0x00,0x00,0x00,0x3e,0x00,0x00,0x00,0x00,0x00,0x00,0xfd,0x01,0x00,0xe8,
 0x00,0x08,0xfc,0x1f,0x00,0x00,0x00,0x00,0xc0,0x00,0x00,0x00,0x00,0x0a,0x00,
 0x00,0x00,0x0d,0x00,0x00,0x00,0x00,0x00,0x00,0x6c,0x0d,0x00,0x3c,0x00,0xc8,
 0xab,0xda,0x00,0x00,0x00,0x00,0xc0,0x00,0x00,0x00,0x00,0x1f,0x00,0x00,0x80,
 0x0f,0x00,0x00,0x00,0x00,0x00,0x00,0xb0,0xf7,0x07,0xf6,0x6d,0x7b,0xff,0xff,
 0x03,0x00,0x00,0x00,0xc0,0x00,0x00,0x00,0x00,0x0d,0x00,0x00,0xc0,0x02,0x00,
 0x00,0x00,0x00,0x00,0x00,0xc0,0x5d,0xfd,0xdd,0xfe,0xb7,0x6d,0xab,0x06,0x00,
 0x00,0x00,0xc0,0x00,0x00,0x00,0x00,0x07,0x00,0x00,0xc0,0x07,0x00,0x00,0x00,
 0x00,0x00,0x00,0x00,0xff,0x57,0xf7,0xab,0xfe,0x03,0xf0,0x0b,0x00,0x00,0x00,
 0xc0,0x00,0x00,0x00,0x00,0x0d,0x00,0x00,0xa0,0x02,0x00,0x00,0x00,0x00,0x00,
 0x00,0x00,0xd0,0xfe,0x5f,0xff,0x2b,0x00,0x80,0x1e,0x00,0x00,0x00,0xc0,0x00,
 0x00,0x00,0x00,0x0f,0x00,0x00,0xe0,0x01,0x00,0x00,0x00,0x00,0x00,0x00,0x00,
 0x00,0xd4,0x3a,0x00,0x00,0x00,0x00,0x36,0x00,0x00,0x00,0xc0,0x00,0x00,0x00,
 0x00,0x05,0x00,0x00,0xa0,0x01,0x00,0x00,0x00,0x00,0x00,0x00,0x00,0x00,0x00,
 0x6e,0x00,0x00,0x00,0x00,0x6c,0x00,0x00,0x00,0xc0,0x00,0x00,0x00,0x00,0x4f,
 0x00,0x00,0xe0,0x00,0x00,0x00,0x00,0x00,0x00,0x00,0x00,0x00,0x00,0xbc,0x00,
 0x00,0x00,0x00,0xb8,0x00,0x00,0x00,0xc0,0x00,0x00,0x00,0x00,0x6d,0x00,0x00,
 0xa0,0x01,0x00,0x00,0x00,0x00,0x00,0x00,0x00,0x00,0x00,0xf0,0x00,0x00,0x00,
 0x00,0xe0,0x01,0x00,0x00,0xc0,0x00,0x00,0x00,0x00,0xd7,0x00,0x00,0xe0,0x01,
 0x00,0x00,0x00,0x00,0x00,0x00,0x00,0x00,0x00,0xa0,0x00,0x00,0x00,0x00,0x60,
 0x03,0x00,0x00,0xc0,0x00,0x00,0x00,0x00,0xfd,0x00,0x00,0xa0,0x00,0x00,0x00,
 0x00,0x00,0x00,0x00,0x00,0x00,0x00,0x00,0x00,0x00,0x00,0x00,0xc0,0x05,0x00,
 0x00,0xc0,0x00,0x00,0x00,0x00,0x6f,0x00,0x00,0xe0,0x01,0x00,0x00,0x00,0x00,
 0x00,0x00,0x00,0x00,0x00,0x00,0x00,0x00,0x00,0x00,0x00,0x0f,0x00,0x00,0xc0,
 0x00,0x00,0x00,0x00,0xfa,0x00,0x00,0xa0,0x01,0x00,0x00,0x00,0x00,0x00,0x00,
 0x00,0x00,0x00,0x00,0x00,0x00,0x00,0x00,0x00,0x0b,0x00,0x00,0xc0,0x00,0x00,
 0x00,0x00,0xae,0x00,0x00,0xe0,0x00,0x00,0x00,0x00,0x00,0x00,0x00,0x00,0x00,
 0x00,0x00,0x00,0x00,0x00,0x00,0x00,0x0f,0x00,0x00,0xc0,0x00,0x00,0x00,0x80,
 0xfd,0x00,0x00,0xa0,0x01,0x00,0x00,0x00,0x00,0x00,0x00,0x00,0x00,0x00,0x00,
 0x00,0x00,0x00,0x00,0x00,0x3c,0x00,0x00,0xc0,0x00,0x00,0x00,0x40,0xb7,0x00,
 0x00,0xe0,0x03,0x00,0x00,0x00,0x00,0x00,0x00,0x00,0x00,0x00,0x00,0x00,0x00,
 0x00,0x00,0x00,0x34,0x00,0x00,0xc0,0x00,0x00,0x00,0xe0,0xdd,0x01,0x00,0x40,
 0x01,0x00,0x00,0x00,0x00,0x00,0x00,0x00,0x00,0x00,0x00,0x00,0x00,0x00,0x00,
 0x00,0x5c,0x00,0x00,0xc0,0x00,0x00,0x00,0x40,0x77,0x03,0x00,0xc0,0x03,0x00,
 0x00,0x00,0x00,0x00,0x00,0x00,0xff,0x03,0x00,0x00,0x00,0x00,0x00,0x00,0xf8,
 0x00,0x00,0xc0,0x00,0x00,0x00,0x00,0xe0,0x05,0x00,0x40,0x03,0x00,0x00,0x00,
 0x00,0x00,0x00,0xfc,0x56,0x0b,0x00,0x00,0x00,0x00,0x00,0x00,0xa0,0x00,0x00,
 0xc0,0x00,0x00,0x00,0x00,0x40,0x1f,0x00,0xc0,0x05,0x00,0x00,0x00,0x00,0x00,
 0x00,0xd7,0xfb,0x3f,0x00,0x00,0x20,0x00,0x00,0x00,0xf0,0x00,0x00,0xc0,0x00,
 0x00,0x00,0x00,0x80,0x75,0x00,0x40,0x07,0x00,0x00,0x00,0x00,0x00,0xfc,0x7e,
 0xdf,0xea,0x00,0x00,0x70,0x00,0x00,0x00,0xd0,0x00,0x00,0xc0,0x00,0x00,0x00,
 0x00,0x00,0xdf,0x00,0x80,0xfd,0x03,0x00,0x00,0x00,0x00,0xd7,0xeb,0x01,0xbe,
 0x01,0x00,0x28,0x00,0x00,0x00,0x70,0x01,0x00,0xc0,0x00,0x00,0x00,0x00,0x00,
 0x74,0x03,0x80,0x07,0x00,0x00,0x00,0x00,0xe0,0x7e,0x07,0x00,0xe8,0x02,0x00,
 0xf8,0x00,0x00,0x00,0xa0,0x01,0x00,0xc0,0x00,0x00,0x00,0x00,0x00,0xd0,0x0d,
 0x80,0x02,0xe0,0xff,0x0f,0x00,0xdf,0xeb,0x01,0x00,0xe0,0x07,0x00,0xd0,0x00,
 0x00,0x00,0xe0,0x00,0x00,0xc0,0x00,0x00,0x00,0x00,0x00,0xc0,0xf7,0xbf,0x07,
 0xb4,0xaa,0xfa,0xff,0x76,0x07,0x00,0x00,0x00,0x0d,0x00,0x70,0x00,0x00,0x00,
 0xa0,0x03,0x00,0xc0,0x00,0x00,0x00,0x00,0x00,0x00,0x5d,0x55,0x03,0xfc,0xff,
 0xaf,0xaa,0xfb,0x01,0x00,0x00,0x00,0x07,0x00,0xd0,0x01,0x00,0x00,0xc0,0x03,
 0x00,0xc0,0x00,0x00,0x00,0x00,0x00,0x00,0xfe,0xff,0x05,0xaf,0x6d,0xfb,0xff,
 0x2f,0x00,0x00,0x00,0x00,0x1d,0x00,0xe0,0x00,0x00,0x00,0x40,0x01,0x00,0xc0,
 0x00,0x00,0x00,0x00,0x00,0x00,0xb0,0x6d,0x07,0x7a,0x00,0xd8,0xb6,0x00,0x00,
 0x00,0x00,0x00,0x0e,0x00,0xa0,0x03,0x00,0x00,0xc0,0x03,0x00,0xc0,0x00,0x00,
 0x00,0x00,0x00,0x00,0x00,0x80,0x07,0x00,0x00,0x00,0x00,0x00,0x00,0x00,0x00,
 0x00,0x3a,0x00,0xc0,0x07,0x00,0x00,0x40,0x07,0x00,0xc0,0x00,0x00,0x00,0x00,
 0x00,0x00,0x00,0x80,0x02,0x00,0x00,0x00,0x00,0x00,0x00,0x00,0x00,0x00,0x3c,
 0x00,0x80,0x02,0x00,0x00,0x80,0x05,0x00,0xc0,0x00,0x00,0x00,0x00,0x00,0x00,
 0x00,0x80,0x07,0x00,0x00,0x00,0x00,0x00,0x00,0x00,0x00,0x00,0x14,0x00,0x80,
 0x0f,0x00,0x00,0x80,0x07,0x00,0xc0,0x00,0x00,0x00,0x00,0x00,0x00,0x00,0x80,
 0x06,0x00,0x00,0x00,0x00,0x00,0x00,0x00,0x00,0x00,0x7c,0x00,0x00,0x16,0x00,
 0x00,0x80,0x02,0x00,0xc0,0x00,0x00,0x00,0x00,0x00,0x00,0x00,0x80,0x03,0x20,
 0x00,0x00,0x00,0x00,0x00,0x00,0x00,0x00,0x68,0x00,0x00,0x1e,0x00,0x00,0x80,
 0x07,0x00,0xc0,0x00,0x00,0x00,0x00,0x00,0x00,0x00,0x80,0x06,0xd0,0x00,0x7c,
 0x00,0x00,0x00,0x00,0x00,0x00,0x38,0x00,0x00,0x1a,0x00,0x00,0x80,0x06,0x00,
 0xc0,0x00,0x00,0x00,0x00,0x00,0x00,0x00,0x80,0x07,0x78,0xc7,0x6b,0x07,0x00,
 0x00,0x00,0x00,0x00,0xe8,0x00,0x00,0x2e,0x00,0x00,0x80,0x03,0x00,0xc0,0x00,
 0x00,0x00,0x00,0x00,0x00,0x00,0x80,0x22,0xd0,0xbd,0xfe,0x0d,0x00,0x00,0x00,
 0x00,0x00,0x70,0x00,0x00,0x34,0x00,0x00,0x80,0x06,0x00,0xc0,0x00,0x00,0x00,
 0x00,0x00,0x00,0x00,0x80,0x27,0xe0,0xf7,0x57,0x77,0x00,0x00,0x00,0x00,0x00,
 0xd0,0x00,0x00,0x3c,0x00,0x00,0x80,0x07,0x00,0xc0,0x00,0x00,0x00,0x00,0x00,
 0x00,0x00,0x80,0x26,0x80,0xae,0xc5,0xdf,0x00,0x00,0x00,0x00,0x00,0xf0,0x00,
 0x00,0xe8,0x00,0x00,0x80,0x0a,0x00,0xc0,0x00,0x00,0x00,0x00,0x00,0xe0,0x1f,
 0x00,0xdb,0xf9,0x7b,0x00,0x78,0x01,0x00,0x00,0x00,0x00,0x50,0x00,0x00,0x70,
 0x00,0x00,0x00,0x0f,0x00,0xc0,0x00,0x00,0x00,0x00,0x00,0xb8,0xda,0x01,0x20,
 0xd6,0x1e,0x00,0xe8,0x03,0x00,0x00,0x00,0x00,0xf0,0x00,0x00,0xd0,0x01,0x00,
 0x00,0x0d,0x00,0xc0,0x00,0x00,0x00,0x00,0x00,0xf6,0x7f,0x0f,0xe0,0x7f,0x17,
 0x00,0x40,0x05,0x00,0x00,0x00,0x00,0xd0,0x00,0x00,0xe0,0x01,0x00,0x00,0x07,
 0x00,0xc0,0x00,0x00,0x00,0x00,0x00,0xdf,0xd6,0xf5,0x5f,0xd5,0x0d,0x00,0x80,
 0x0f,0x00,0x00,0x00,0x00,0x70,0x00,0x00,0xa0,0x00,0x00,0x00,0x0d,0x00,0xc0,
 0x00,0x00,0x00,0x00,0x80,0x35,0xf0,0x5f,0xf5,0x8f,0x0f,0x00,0x00,0x0d,0x00,
 0x00,0x00,0x00,0xd0,0x00,0x00,0xe0,0x03,0x00,0x00,0x0f,0x00,0xc0,0x00,0x00,
 0x00,0x00,0x80,0x0e,0x00,0xf6,0xdf,0xc0,0x02,0x00,0x00,0x1e,0x00,0x00,0x00,
 0x00,0xf0,0x00,0x00,0x40,0x03,0x00,0x00,0x05,0x00,0xc0,0x00,0x00,0x00,0x00,
 0xc0,0x07,0x00,0xb8,0x7d,0x80,0x03,0x00,0x00,0x1a,0x00,0x00,0x00,0x00,0x50,
 0x00,0x00,0xc0,0x05,0x00,0x00,0x0f,0x00,0xc0,0x00,0x00,0x00,0x00,0xa0,0x01,
 0x00,0x00,0x00,0x00,0x00,0x00,0x00,0x16,0x00,0x00,0x00,0x00,0xf0,0x00,0x00,
 0x00,0x07,0x00,0x00,0x0d,0x00,0xc0,0x00,0x00,0x00,0x00,0xf0,0x01,0x00,0x00,
 0x00,0x00,0x00,0x00,0x00,0x1e,0x00,0x00,0x00,0x00,0xd0,0x00,0x00,0x80,0x0b,
 0x00,0x00,0x07,0x00,0xc0,0x00,0x00,0x00,0x00,0x58,0x00,0x00,0x00,0x00,0x00,
 0x00,0x00,0x00,0x14,0x00,0x00,0x00,0x00,0x70,0x00,0x00,0x00,0x0d,0x00,0x00,
 0x0d,0x00,0xc0,0x00,0x00,0x00,0x00,0x74,0x00,0x00,0x00,0x00,0x00,0x00,0x00,
 0x00,0x1e,0x00,0x00,0x00,0x00,0xd0,0x00,0x00,0x00,0x0f,0x00,0x00,0x0f,0x00,
 0xc0,0x00,0x00,0x00,0x00,0x3e,0x00,0x00,0x00,0x00,0x00,0x00,0x00,0x00,0x16,
 0x00,0x00,0x00,0x00,0xf0,0x00,0x00,0x00,0x05,0x00,0x00,0x05,0x00,0xc0,0x00,
 0x00,0x00,0x00,0x2a,0x00,0x00,0x00,0x00,0x00,0x00,0x00,0x00,0x1e,0x00,0x00,
 0x00,0x00,0x50,0x00,0x00,0x00,0x0f,0x00,0x00,0x0f,0x00,0xc0,0x00,0x00,0x00,
 0x00,0x1f,0x00,0x00,0x00,0x00,0x00,0x00,0x00,0x00,0x0a,0x00,0x00,0x00,0x00,
 0xf0,0x00,0x00,0x00,0x0d,0x00,0x00,0x0d,0x00,0xc0,0x00,0x00,0x00,0x00,0x0d,
 0x00,0x00,0x00,0x00,0x00,0x00,0x00,0x00,0x1f,0x00,0x00,0x00,0x00,0xd0,0x00,
 0x00,0x00,0x07,0x00,0x00,0x07,0x00,0xc0,0x00,0x00,0x00,0x80,0x07,0x00,0x00,
 0x00,0x01,0x00,0x00,0x00,0x00,0x05,0x00,0x00,0x00,0x00,0x70,0x00,0x00,0x00,
 0x0d,0x00,0x00,0x0d,0x00,0xc0,0x00,0x00,0x00,0x80,0x06,0x00,0x00,0x80,0x03,
 0x00,0x00,0x00,0x00,0x0f,0x00,0x00,0x00,0x00,0xd0,0x00,0x00,0x00,0x0f,0x00,
 0x00,0x0f,0x00,0xc0,0x00,0x00,0x00,0xc0,0x05,0x00,0x00,0x40,0x01,0x00,0x00,
 0x00,0x80,0x06,0x00,0x00,0x00,0x00,0xf0,0x00,0x00,0x00,0x05,0x00,0x00,0x05,
 0x00,0xc0,0x00,0x00,0x00,0x40,0x03,0x00,0x00,0xc0,0x03,0x00,0x00,0x00,0x80,
 0x07,0x00,0x00,0x00,0x00,0x50,0x00,0x00,0x00,0x0f,0x00,0x00,0x0f,0x00,0xc0,
 0x00,0x00,0x00,0xc0,0x03,0x00,0x00,0x40,0x03,0x00,0x00,0x00,0x80,0x02,0x00,
 0x00,0x00,0x00,0xf8,0x00,0x00,0x00,0x0d,0x00,0x00,0x0d,0x00,0xc0,0x00,0x00,
 0x00,0x60,0x01,0x00,0x00,0xc0,0x01,0x00,0x00,0x00,0x80,0x07,0x00,0x00,0x00,
 0x00,0x68,0x00,0x00,0x00,0x07,0x00,0x00,0x07,0x00,0xc0,0x00,0x00,0x00,0xd0,
 0x01,0x00,0x00,0x60,0x03,0x00,0x00,0x00,0x00,0x45,0x00,0x00,0x00,0x00,0x38,
 0x00,0x00,0x00,0x0d,0x00,0x00,0x0d,0x00,0xc0,0x00,0x00,0x00,0xf0,0x00,0x00,
 0x00,0xe0,0x01,0x00,0x00,0x00,0x00,0x40,0x00,0x00,0x00,0x00,0x68,0x00,0x00,
 0x00,0x0f,0x00,0x00,0x0f,0x00,0xc0,0x00,0x00,0x00,0xd8,0x00,0x00,0x00,0x50,
 0x01,0x00,0x00,0x00,0x00,0x40,0x00,0x00,0x00,0x00,0x78,0x00,0x00,0x00,0x05,
 0x00,0x00,0x05,0x00,0xc0,0x00,0x00,0x00,0x78,0x00,0x00,0x00,0xf0,0x00,0x00,
 0x00,0x00,0x00,0xb8,0x03,0x00,0x00,0x00,0x28,0x00,0x00,0x00,0x0f,0x00,0x00,
 0x0f,0x00,0xc0,0x00,0x00,0x00,0x28,0x00,0x00,0x00,0xd0,0x00,0x00,0x00,0x00,
 0x00,0x40,0x00,0x00,0x00,0x00,0x78,0x00,0x00,0x80,0x0e,0x00,0x00,0x0d,0x00,
 0xc0,0x00,0x00,0x00,0x7c,0x00,0x00,0x00,0x78,0x00,0x00,0x00,0x00,0x00,0x50,
 0x00,0x00,0x00,0x00,0x34,0x00,0x00,0x80,0x03,0x00,0x00,0x07,0x00,0xc0,0x00,
 0x00,0x00,0x14,0x00,0x00,0x00,0x54,0x00,0x00,0x00,0x00,0x00,0xaf,0x01,0x00,
 0x00,0x00,0x3c,0x00,0x00,0x80,0x06,0x00,0x00,0x1d,0x00,0xc0,0x00,0x00,0x00,
 0x3c,0x00,0x00,0x00,0x3c,0x00,0x00,0x00,0x00,0xc0,0xfd,0x3f,0x00,0x00,0x00,
 0x16,0x00,0x00,0xc0,0x07,0x00,0x00,0x0e,0x00,0xc0,0x00,0x00,0x00,0x1a,0x00,
 0x00,0x00,0x36,0x00,0x00,0x00,0x00,0x60,0x57,0xb5,0x00,0x00,0x00,0x1e,0x00,
 0x00,0x40,0x01,0x00,0x00,0x1a,0x00,0xc0,0x00,0x00,0x00,0x1e,0x00,0x00,0x80,
 0x1d,0x00,0x00,0x00,0x00,0xb0,0xfd,0xff,0x03,0x00,0x00,0x15,0x00,0x00,0xe0,
 0x03,0x00,0x00,0x1e,0x00,0xc0,0x00,0x00,0x00,0x0a,0x00,0x00,0x60,0x3f,0x00,
 0x00,0x00,0x00,0xee,0x01,0xaa,0x0e,0x00,0x08,0x0f,0x00,0x00,0xa0,0x01,0x00,
 0x00,0x1a,0x00,0xc0,0x00,0x00,0x00,0x1f,0x00,0x00,0xf0,0x6b,0x00,0x00,0x00,
 0x00,0x7b,0x00,0xe0,0x7b,0x00,0x9e,0x0d,0x00,0x00,0xe0,0x00,0x00,0x00,0x0e,
 0x00,0xc0,0x00,0x00,0x00,0x0d,0x00,0x00,0x58,0x3f,0x00,0x00,0x00,0x80,0x1d,
 0x00,0x80,0xae,0x81,0x95,0x06,0x00,0x00,0xd0,0x01,0x00,0x00,0x1a,0x00,0xc0,
 0x00,0x00,0x00,0x07,0x00,0x00,0xf0,0xf5,0x00,0x00,0x00,0x80,0x17,0x00,0x00,
 0xfe,0x7e,0x9f,0x03,0x00,0x00,0x70,0x00,0x00,0x00,0x1e,0x00,0xc0,0x00,0x00,
 0x00,0x0d,0x00,0x00,0x00,0xdf,0x00,0x00,0x00,0x40,0x05,0x00,0x00,0xd0,0xeb,
 0xfb,0x03,0x00,0x00,0xd8,0x00,0x00,0x00,0x0a,0x00,0xc0,0x00,0x00,0x00,0x0f,
 0x00,0x00,0x00,0x6c,0x00,0x00,0x00,0xe0,0x03,0x00,0x00,0xc0,0xbe,0xae,0x00,
 0x00,0x00,0x78,0x00,0x00,0x00,0x1e,0x00,0xc0,0x00,0x00,0x00,0x05,0x00,0x00,
 0x00,0xfe,0x00,0x00,0x00,0xd8,0x00,0x02,0x00,0x00,0xf7,0xf7,0x00,0x00,0x00,
 0x54,0x00,0x00,0x00,0x1a,0x00,0xc0,0x00,0x00,0x80,0x0f,0x00,0x00,0x00,0x2a,
 0x00,0x00,0x00,0x7c,0x00,0x03,0x00,0x00,0xd0,0x3e,0x00,0x00,0x00,0x3e,0x00,
 0x00,0x00,0x0e,0x00,0xc0,0x00,0x00,0x80,0x06,0x00,0x00,0x00,0x3c,0x00,0x00,
 0x00,0x56,0x80,0x06,0x00,0x00,0xe0,0x03,0x00,0x00,0x00,0x1a,0x00,0x00,0x00,
 0x1a,0x00,0xc0,0x00,0x00,0x80,0x03,0x00,0x00,0x00,0xf4,0x00,0x00,0x00,0x3d,
 0x80,0x07,0x00,0x00,0x80,0x02,0x00,0x00,0x00,0x0f,0x00,0x00,0x00,0x1e,0x00,
 0xc0,0x00,0x00,0x80,0x06,0x00,0x00,0x00,0xd8,0x01,0x00,0x80,0x07,0x80,0x05,
 0x00,0x00,0xc0,0x07,0x00,0x00,0x80,0x0a,0x00,0x00,0x00,0x0a,0x00,0xc0,0x00,
 0x00,0x80,0x07,0x00,0x00,0x00,0x60,0x03,0x00,0x60,0x07,0x80,0x06,0x00,0x00,
 0x80,0x06,0x00,0x00,0x80,0x07,0x00,0x00,0x00,0x1e,0x00,0xc0,0x00,0x00,0x80,
 0x02,0x00,0x00,0x00,0xc0,0x0e,0x00,0xd8,0x01,0x80,0x07,0x00,0x00,0x00,0x03,
 0x00,0x00,0xc0,0x06,0x00,0x00,0x00,0x1a,0x00,0xc0,0x00,0x00,0x80,0x0f,0x00,
 0x00,0x00,0x80,0xfb,0x00,0xf6,0x01,0x80,0x02,0x00,0x00,0x00,0x00,0x00,0x00,
 0xa0,0x03,0x00,0x00,0x00,0x0e,0x00,0xc0,0x00,0x00,0x00,0x0d,0x00,0x00,0x00,
 0x00,0xae,0xff,0xbd,0x00,0xc0,0x07,0x00,0x00,0x00,0x00,0x00,0x00,0xf0,0x01,
 0x00,0x00,0x00,0x1a,0x00,0xc0,0x00,0x00,0x00,0x07,0x00,0x00,0x00,0x00,0xf6,
 0xaa,0x2f,0x00,0x40,0x03,0x00,0x00,0x00,0x00,0x00,0x00,0x58,0x00,0x00,0x00,
 0x00,0x1f,0x00,0xc0,0x00,0x00,0x00,0x0d,0x00,0x00,0x00,0x00,0xb8,0xff,0x0a,
 0x00,0xc0,0x01,0x00,0x00,0x00,0x00,0x00,0x00,0x74,0x00,0x00,0x00,0x00,0x05,
 0x00,0xc0,0x00,0x00,0x00,0x0f,0x00,0x00,0x00,0x00,0x80,0x6d,0x03,0x00,0x40,
 0x03,0x00,0x00,0x00,0x00,0x00,0x00,0x3e,0x00,0x00,0x00,0x00,0x0f,0x00,0xc0,
 0x00,0x00,0x00,0x15,0x00,0x00,0x00,0x00,0x00,0x00,0x00,0x00,0xe0,0x03,0x00,
 0x00,0x00,0x00,0x00,0x00,0x0b,0x00,0x00,0x00,0x00,0x0d,0x00,0xc0,0x00,0x00,
 0x00,0x1e,0x00,0x00,0x00,0x00,0x00,0x00,0x00,0x00,0xa0,0x00,0x00,0x00,0x00,
 0x00,0x00,0x80,0x1e,0x00,0x00,0x00,0x00,0x07,0x00,0xc0,0x00,0x00,0x00,0x1a,
 0x00,0x00,0x00,0x00,0x00,0x00,0x00,0x00,0xe0,0x01,0x00,0x00,0x00,0x00,0x00,
 0xc0,0x07,0x00,0x00,0x00,0x00,0x0d,0x00,0xc0,0x00,0x00,0x00,0x2e,0x00,0x00,
 0x00,0x00,0x00,0x00,0x00,0x00,0xa0,0x01,0x00,0x00,0x00,0x00,0x00,0x40,0x05,
 0x00,0x00,0x00,0x80,0x0f,0x00,0xc0,0x00,0x00,0x00,0x34,0x00,0x00,0x00,0x00,
 0x00,0x00,0x00,0x00,0xe0,0x00,0x00,0x00,0x00,0x00,0x00,0xe0,0x03,0x00,0x00,
 0x00,0x80,0x02,0x00,0xc0,0x00,0x00,0x00,0x3c,0x00,0x00,0x00,0x00,0x00,0x00,
 0x00,0x00,0xa0,0x01,0x00,0x00,0x00,0x00,0x00,0xd0,0x00,0x00,0x00,0x00,0x80,
 0x07,0x00,0xc0,0x00,0x00,0x00,0x54,0x00,0x00,0x00,0x00,0x00,0x00,0x00,0x00,
 0xe0,0x01,0x00,0x00,0x00,0x00,0x00,0xf8,0x00,0x00,0x00,0x00,0x40,0x03,0x00,
 0xc0,0x00,0x00,0x00,0x78,0x00,0x00,0x00,0x00,0x00,0x00,0x00,0x00,0xa0,0x00,
 0x00,0x00,0x00,0x00,0x00,0x2c,0x00,0x00,0x00,0x00,0xc0,0x03,0x00,0xc0,0x00,
 0x00,0x00,0x68,0x00,0x00,0x00,0x00,0x00,0x00,0x00,0x00,0xe0,0x03,0x00,0x00,
 0x00,0x00,0x00,0x7a,0x00,0x00,0x00,0x00,0x40,0x01,0x00,0xc0,0x00,0x00,0x00,
 0xf0,0x00,0x00,0x00,0x00,0x00,0x00,0x00,0x00,0x40,0x07,0x00,0x00,0x00,0x00,
 0x00,0x1f,0x00,0x00,0x00,0x00,0xe0,0x03,0x00,0xc0,0x00,0x00,0x00,0xd0,0x00,
 0x00,0x00,0x00,0x00,0x00,0x00,0x00,0x80,0x0d,0x00,0x00,0x00,0x00,0x00,0x15,
 0x00,0x00,0x00,0x00,0xa0,0x01,0x00,0xc0,0x00,0x00,0x00,0xb0,0x01,0x00,0x00,
 0x00,0x00,0x00,0x00,0x00,0x80,0x1b,0x00,0x00,0x00,0x00,0x80,0x0f,0x00,0x00,
 0x00,0x00,0xf0,0x00,0x00,0xc0,0x00,0x00,0x00,0xe0,0x00,0x00,0x00,0x00,0x00,
 0x00,0x00,0x00,0x00,0x0e,0x00,0x00,0x00,0x00,0x40,0x3b,0x00,0x00,0x00,0x00,
 0xd0,0x00,0x00,0xc0,0x00,0x00,0x00,0xa0,0x03,0x00,0x00,0x00,0x00,0x00,0x00,
 0x00,0x00,0xfe,0x00,0x80,0x7f,0x00,0xc0,0x07,0x00,0x00,0x00,0x00,0xb8,0x00,
 0x00,0xc0,0x00,0x00,0x00,0xc0,0x05,0x00,0x00,0x00,0x00,0x00,0x00,0x00,0x00,
 0xa8,0x0f,0x7f,0x6b,0x00,0x60,0x05,0x00,0x08,0x00,0x00,0x74,0x00,0x00,0xc0,
 0x00,0x00,0x00,0x40,0x07,0x00,0x00,0x00,0x00,0x00,0x00,0x00,0x00,0xf8,0xfa,
 0xd6,0xbf,0x00,0xd0,0x05,0x00,0x1c,0x00,0x00,0x1e,0x00,0x00,0xc0,0x00,0x00,
 0x00,0x80,0x0b,0x00,0x00,0x00,0x00,0x00,0x00,0x00,0x00,0xb0,0xaf,0x7f,0xf5,
 0x00,0xf0,0x00,0x04,0x36,0x00,0x00,0x1b,0x00,0x00,0xc0,0x00,0x00,0x00,0x00,
 0x0e,0x00,0x00,0x00,0x00,0x00,0x00,0x00,0x00,0x80,0xfd,0xea,0x00,0x00,0x58,
 0x00,0x7e,0x2c,0x00,0x80,0x0e,0x00,0x00,0xc0,0x00,0x00,0x00,0x00,0x17,0x00,
 0x00,0x00,0x00,0x00,0x00,0x00,0x00,0x00,0xe8,0x01,0x00,0x00,0x74,0x00,0xd5,
 0x7d,0x00,0xe0,0x03,0x00,0x00,0xc0,0x00,0x00,0x00,0x00,0x3e,0x00,0x00,0x00,
 0x00,0x00,0x00,0x00,0x00,0x00,0x00,0x00,0x00,0x20,0x3c,0x00,0x7e,0x57,0x00,
 0xb0,0x03,0x00,0x00,0xc0,0x00,0x00,0x00,0x00,0x2a,0x00,0x00,0x00,0x00,0x00,
 0x00,0x00,0x00,0x00,0x00,0x00,0x00,0x70,0x16,0x00,0xb4,0x7b,0x00,0xd8,0x00,
 0x00,0x00,0xc0,0x00,0x00,0x00,0x00,0x7c,0x00,0x00,0x00,0x00,0x00,0x00,0x00,
 0x00,0x00,0x00,0x00,0x00,0xd8,0x1c,0x00,0xc0,0xde,0x02,0xf7,0x00,0x00,0x00,
 0xc0,0x00,0x00,0x00,0x00,0xa8,0x00,0x00,0x00,0x00,0x00,0x00,0x00,0x00,0x00,
 0x00,0x00,0x00,0xb0,0x0f,0x00,0x00,0xf7,0xff,0x3e,0x00,0x00,0x00,0xc0,0x00,
 0x00,0x00,0x00,0xf0,0x01,0x00,0x00,0x00,0x00,0x00,0x00,0x00,0x00,0x00,0x00,
 0x00,0xf0,0x4a,0x00,0x00,0x5e,0xd5,0x2b,0x00,0x00,0x00,0xc0,0x00,0x00,0x00,
 0x00,0xa0,0x02,0x00,0x00,0x00,0x00,0x00,0x00,0x00,0x00,0x00,0x00,0x00,0xc0,
 0xff,0x00,0x80,0xf5,0x7f,0x0f,0x00,0x00,0x00,0xc0,0x00,0x00,0x00,0x00,0xe0,
 0x03,0x00,0x00,0x00,0x00,0x00,0x00,0x00,0x00,0x00,0x00,0x00,0x60,0x5b,0x00,
 0x40,0x3f,0xda,0x01,0x00,0x00,0x00,0xc0,0x00,0x00,0x00,0x00,0x80,0x05,0x00,
 0x00,0x00,0x00,0x00,0x00,0x00,0x00,0x00,0x00,0x00,0xe0,0xfe,0x00,0xe0,0x0d,
 0x00,0x00,0x00,0x00,0x00,0xc0,0x00,0x00,0x00,0x00,0x80,0x0f,0x00,0x00,0x00,
 0x00,0x00,0x00,0x00,0x00,0x00,0x00,0x00,0x80,0x57,0x00,0x40,0x03,0x00,0x00,
 0x00,0x00,0x00,0xc0,0x00,0x00,0x00,0x00,0x00,0x1a,0x00,0x00,0x00,0x00,0x00,
 0x00,0x00,0x00,0x00,0x00,0x00,0xc0,0x1d,0x00,0x00,0x00,0x00,0x00,0x00,0x00,
 0x00,0xc0,0x00,0x00,0x00,0x00,0x00,0x2e,0x00,0x00,0x00,0x00,0x00,0x00,0x00,
 0x00,0x00,0x00,0x00,0x60,0x07,0x00,0x00,0x00,0x00,0x00,0x00,0x00,0x00,0xc0,
 0x00,0x00,0x00,0x00,0x00,0x7c,0x00,0x00,0x00,0x00,0x00,0x00,0x00,0x00,0x00,
 0x00,0x00,0xe0,0x01,0x00,0x00,0x00,0x00,0x00,0x00,0x00,0x00,0xc0,0x00,0x00,
 0x00,0x00,0x00,0xd0,0x00,0x00,0x00,0x00,0x00,0x00,0x00,0x00,0x00,0x00,0x00,
 0x50,0x01,0x00,0x00,0x00,0x00,0x00,0x00,0x00,0x00,0xc0,0x00,0x00,0x00,0x00,
 0x00,0x70,0x03,0x00,0x00,0x00,0x00,0x00,0x00,0x00,0x00,0x00,0x00,0xf0,0x01,
 0x00,0x00,0x00,0x00,0x00,0x00,0x00,0x00,0xc0,0x00,0x00,0x00,0x00,0x00,0xe0,
 0x05,0x00,0x00,0x00,0x00,0x00,0x00,0x00,0x00,0x00,0x00,0xd8,0x00,0x00,0x00,
 0x00,0x00,0x00,0x00,0x00,0x00,0xc0,0x00,0x00,0x00,0x00,0x00,0x80,0x0f,0x00,
 0x00,0x00,0x00,0x00,0x00,0x00,0x00,0x00,0x00,0x74,0x00,0x00,0x00,0x00,0x00,
 0x00,0x00,0x00,0x00,0xc0,0x00,0x00,0x00,0x00,0x00,0x80,0x1a,0x00,0x00,0x00,
 0x00,0x00,0x00,0x00,0x00,0x00,0x00,0x5e,0x00,0x00,0x00,0x00,0x00,0x00,0x00,
 0x00,0x00,0xc0,0x00,0x00,0x00,0x00,0x00,0x00,0x2f,0x00,0x00,0x00,0x00,0x00,
 0x00,0x00,0x00,0x00,0x00,0x3b,0x00,0x00,0x00,0x00,0x00,0x00,0x00,0x00,0x00,
 0xc0,0x00,0x00,0x00,0x00,0x00,0x00,0x7c,0x00,0x00,0x00,0x00,0x00,0x00,0x00,
 0x00,0x00,0xc0,0x0e,0x00,0x00,0x00,0x00,0x00,0x00,0x00,0x00,0x00,0xc0,0x00,
 0x00,0x00,0x00,0x00,0x00,0xd0,0x00,0x00,0x00,0x00,0x00,0x00,0x00,0x00,0x00,
 0xe0,0x0b,0x00,0x00,0x00,0x00,0x00,0x00,0x00,0x00,0x00,0xc0,0x00,0x00,0x00,
 0x00,0x00,0x00,0x70,0x03,0x00,0x00,0x00,0x00,0x00,0x00,0x00,0x00,0x5c,0x03,
 0x00,0x00,0x00,0x00,0x00,0x00,0x00,0x00,0x00,0xc0,0x00,0x00,0x00,0x00,0x00,
 0x00,0xe0,0x05,0x00,0x00,0x00,0x00,0x00,0x00,0x00,0x00,0xf7,0x01,0x00,0x00,
 0x00,0x00,0x00,0x00,0x00,0x00,0x00,0xc0,0x00,0x00,0x00,0x00,0x00,0x00,0x80,
 0x1f,0x00,0x00,0x00,0x00,0x00,0x00,0x00,0xc0,0xde,0x00,0x00,0x00,0x00,0x00,
 0x00,0x00,0x00,0x00,0x00,0xc0,0x00,0x00,0x00,0x00,0x00,0x00,0x80,0x2a,0x00,
 0x00,0x00,0x00,0x00,0x00,0x00,0xe0,0x3b,0x00,0x00,0x00,0x00,0x00,0x00,0x00,
 0x00,0x00,0x00,0xc0,0x00,0x00,0x00,0x00,0x00,0x00,0x00,0x7f,0x00,0x00,0x00,
 0x00,0x00,0x00,0x00,0x5c,0x07,0x00,0x00,0x00,0x00,0x00,0x00,0x00,0x00,0x00,
 0x00,0xc0,0x00,0x00,0x00,0x00,0x00,0x00,0x00,0xb4,0x00,0x00,0x00,0x00,0x00,
 0x00,0x00,0xf7,0x01,0x00,0x00,0x00,0x00,0x00,0x00,0x00,0x00,0x00,0x00,0xc0,
 0x00,0x00,0x00,0x00,0x00,0x00,0x00,0xf8,0x07,0x00,0x00,0x00,0x00,0x00,0xe0,
 0xde,0x00,0x00,0x00,0x00,0x00,0x00,0x00,0x00,0x00,0x00,0x00,0xc0,0x00,0x00,
 0x00,0x00,0x00,0x00,0x00,0x40,0x3d,0x00,0x00,0x00,0x00,0x00,0xdc,0x3b,0x00,
 0x00,0x00,0x00,0x00,0x00,0x00,0x00,0x00,0x00,0x00,0xc0,0x00,0x00,0x00,0x00,
 0x00,0x00,0x00,0xc0,0xd7,0x00,0x00,0x00,0x00,0x00,0x77,0x07,0x00,0x00,0x00,
 0x00,0x00,0x00,0x00,0x00,0x00,0x00,0x00,0xc0,0x00,0x00,0x00,0x00,0x00,0x00,
 0x00,0x80,0x7e,0x07,0x00,0x00,0x00,0xe0,0xde,0x01,0x00,0x00,0x00,0x00,0x00,
 0x00,0x00,0x00,0x00,0x00,0x00,0xc0,0x00,0x00,0x00,0x00,0x00,0x00,0x00,0x00,
 0xf4,0x3d,0x00,0x00,0x00,0xdc,0x3b,0x00,0x00,0x00,0x00,0x00,0x00,0x00,0x00,
 0x00,0x00,0x00,0x00,0xc0,0x00,0x00,0x00,0x00,0x00,0x00,0x00,0x00,0x40,0xd7,
 0x07,0x00,0xe0,0x7b,0x07,0x00,0x00,0x00,0x00,0x00,0x00,0x00,0x00,0x00,0x00,
 0x00,0x00,0xc0,0x00,0x00,0x00,0x00,0x00,0x00,0x00,0x00,0xc0,0x7f,0xfd,0xff,
 0xdf,0xee,0x01,0x00,0x00,0x00,0x00,0x00,0x00,0x00,0x00,0x00,0x00,0x00,0x00,
 0xc0,0x00,0x00,0x00,0x00,0x00,0x00,0x00,0x00,0x00,0xd8,0x57,0x55,0x75,0x3f,
 0x00,0x00,0x00,0x00,0x00,0x00,0x00,0x00,0x00,0x00,0x00,0x00,0x00,0xc0,0x00,
 0x00,0x00,0x00,0x00,0x00,0x00,0x00,0x00,0xe0,0xfe,0xff,0xff,0x05,0x00,0x00,
 0x00,0x00,0x00,0x00,0x00,0x00,0x00,0x00,0x00,0x00,0x00,0xc0,0x00,0x00,0x00,
 0x00,0x00,0x00,0x00,0x00,0x00,0x00,0xb4,0x6d,0x2b,0x00,0x00,0x00,0x00,0x00,
 0x00,0x00,0x00,0x00,0x00,0x00,0x00,0x00,0x00,0xc0,0x00,0x00,0x00,0x00,0x00,
 0x00,0x00,0x00,0x00,0x00,0x00,0x00,0x00,0x00,0x00,0x00,0x00,0x00,0x00,0x00,
 0x00,0x00,0x00,0x00,0x00,0x00,0x00,0xc0,0x00,0x00,0x00,0x00,0x00,0x00,0x00,
 0x00,0x00,0x00,0x00,0x00,0x00,0x00,0x00,0x00,0x00,0x00,0x00,0x00,0x00,0x00,
 0x00,0x00,0x00,0x00,0x00,0xc0,0x00,0x00,0x00,0x00,0x00,0x00,0x00,0x00,0x00,
 0x00,0x00,0x00,0x00,0x00,0x00,0x00,0x00,0x00,0x00,0x00,0x00,0x00,0x00,0x00,
 0x00,0x00,0x00,0xc0,0x00,0x00,0x00,0x00,0x00,0x00,0x00,0x00,0x00,0x00,0x00,
 0x00,0x00,0x00,0x00,0x00,0x00,0x00,0x00,0x00,0x00,0x00,0x00,0x00,0x00,0x00,
 0x00,0xc0,0x00,0x00,0x00,0x00,0x00,0x00,0x00,0x00,0x00,0x00,0x00,0x00,0x00,
 0x00,0x00,0x00,0x00,0x00,0x00,0x00,0x00,0x00,0x00,0x00,0x00,0x00,0x00,0xc0,
 0x00,0x00,0x00,0x00,0x00,0x00,0x00,0x00,0x00,0x00,0x00,0x00,0x00,0x00,0x00,
 0x00,0x00,0x00,0x00,0x00,0x00,0x00,0x00,0x00,0x00,0x00,0x00,0xc0,0x00,0x00,
 0x00,0x00,0x00,0x00,0x00,0x00,0x00,0x00,0x00,0x00,0x00,0x00,0x00,0x00,0x00,
 0x00,0x00,0x00,0x00,0x00,0x00,0x00,0x00,0x00,0x00,0xc0,0x00,0x00,0x00,0x00,
 0x00,0x00,0x00,0x00,0x00,0x00,0x00,0x00,0x00,0x00,0x00,0x00,0x00,0x00,0x00,
 0x00,0x00,0x00,0x00,0x00,0x00,0x00,0x00,0xc0,0x00,0x00,0x00,0x00,0x00,0x00,
 0x00,0x00,0x00,0x00,0x00,0x00,0x00,0x00,0x00,0x00,0x00,0x00,0x00,0x00,0x00,
 0x00,0x00,0x00,0x00,0x00,0x00,0xc0,0x00,0x00,0x00,0x00,0x00,0x00,0x00,0x00,
 0x00,0x00,0x00,0x00,0x00,0x00,0x00,0x00,0x00,0x00,0x00,0x00,0x00,0x00,0x00,
 0x00,0x00,0x00,0x00,0xc0,0x00,0x00,0x00,0x00,0x00,0x00,0x00,0x00,0x00,0x00,
 0x00,0x00,0x00,0x00,0x00,0x00,0x00,0x00,0x00,0x00,0x00,0x00,0x00,0x00,0x00,
 0x00,0x00,0xc0,0x00,0x00,0x00,0x00,0x00,0x00,0x00,0x00,0x00,0x00,0x00,0x00,
 0x00,0x00,0x00,0x00,0x00,0x00,0x00,0x00,0x00,0x00,0x00,0x00,0x00,0x00,0x00,
 0xc0,0x00,0x00,0x00,0x00,0x00,0x00,0x00,0x00,0x00,0x00,0x00,0x00,0x00,0x00,
 0x00,0x00,0x00,0x00,0x00,0x00,0x00,0x00,0x00,0x00,0x00,0x00,0x00,0xc0,0x00,
 0x00,0x00,0x00,0x00,0x00,0x00,0x00,0x00,0x00,0x00,0x00,0x00,0x00,0x00,0x00,
 0x00,0x00,0x00,0x00,0x00,0x00,0x00,0x00,0x00,0x00,0x00,0xc0,0x00,0x00,0x00,
 0x00,0x00,0x00,0x00,0x00,0x00,0x00,0x00,0x00,0x00,0x00,0x00,0x00,0x00,0x00,
 0x00,0x00,0x00,0x00,0x00,0x00,0x00,0x00,0x00,0xc0,0x00,0x00,0x00,0x00,0x00,
 0x00,0x00,0x00,0x00,0x00,0x00,0x00,0x00,0x00,0x00,0x00,0x00,0x00,0x00,0x00,
 0x00,0x00,0x00,0x00,0x00,0x00,0x00,0xc0,0x00,0x00,0x00,0x00,0x00,0x00,0x00,
 0x00,0x00,0x00,0x00,0x00,0x00,0x00,0x00,0x00,0x00,0x00,0x00,0x00,0x00,0x00,
 0x00,0x00,0x00,0x00,0x00,0xc0,0x00,0x00,0x00,0x00,0x00,0x00,0x00,0x00,0x00,
 0x00,0x00,0x00,0x00,0x00,0x00,0x00,0x00,0x00,0x00,0x00,0x00,0x00,0x00,0x00,
 0x00,0x00,0x00,0xc0,0x00,0x00,0x00,0x00,0x00,0x00,0x00,0x00,0x00,0x00,0x00,
 0x00,0x00,0x00,0x00,0x00,0x00,0x00,0x00,0x00,0x00,0x00,0x00,0x00,0x00,0x00,
 0x00,0xc0,0x00,0x00,0x00,0x00,0x00,0x00,0x00,0x00,0x00,0x00,0x00,0x00,0x00,
 0x00,0x00,0x00,0x00,0x00,0x00,0x00,0x00,0x00,0x00,0x00,0x00,0x00,0x00,0xc0,
 0x00,0x00,0x00,0x00,0x00,0x00,0x00,0x00,0x00,0x00,0x00,0x00,0x00,0x00,0x00,
 0x00,0x00,0x00,0x00,0x00,0x00,0x00,0x00,0x00,0x00,0x00,0x00,0xc0,0x00,0x00,
 0x00,0x00,0x00,0x00,0x00,0x00,0x00,0x00,0x00,0x00,0x00,0x00,0x00,0x00,0x00,
 0x00,0x00,0x00,0x00,0x00,0x00,0x00,0x00,0x00,0x00,0xc0};
